<?xml version="1.0" encoding="UTF-8"?>
<svg id="Layer_1" data-name="Layer 1" xmlns="http://www.w3.org/2000/svg" viewBox="0 0 512.08 128.02">
  <defs>
    <style>
      .cls-1 {
        fill: #ed5c9b;
      }

      .cls-2 {
        fill: #1a1a1a;
      }
    </style>
  </defs>
  <g>
    <path class="cls-2" d="M62.16,32.1v59.64c0,1.6,.52,2.86,1.56,3.78,1.04,.92,2.44,1.38,4.2,1.38h28.32l1.08,16.92c-6,.72-12.32,1.14-18.96,1.26-6.64,.12-13.2,.18-19.68,.18-6,0-10.66-1.68-13.98-5.04-3.32-3.36-4.98-7.72-4.98-13.08V32.1h22.44Z"/>
    <path class="cls-2" d="M134.52,53.58c7.84,0,14.12,1.02,18.84,3.06,4.72,2.04,8.12,5.36,10.2,9.96,2.08,4.6,3.12,10.78,3.12,18.54s-1.04,13.78-3.12,18.3c-2.08,4.52-5.48,7.8-10.2,9.84-4.72,2.04-11,3.06-18.84,3.06s-14.12-1.02-18.84-3.06c-4.72-2.04-8.12-5.32-10.2-9.84-2.08-4.52-3.12-10.62-3.12-18.3s1.04-13.94,3.12-18.54c2.08-4.6,5.48-7.92,10.2-9.96,4.72-2.04,11-3.06,18.84-3.06Zm0,15.24c-2.48,0-4.38,.44-5.7,1.32-1.32,.88-2.26,2.48-2.82,4.8-.56,2.32-.84,5.72-.84,10.2s.28,7.76,.84,10.08c.56,2.32,1.5,3.9,2.82,4.74,1.32,.84,3.22,1.26,5.7,1.26s4.4-.42,5.76-1.26c1.36-.84,2.3-2.42,2.82-4.74,.52-2.32,.78-5.68,.78-10.08s-.26-7.88-.78-10.2c-.52-2.32-1.46-3.92-2.82-4.8-1.36-.88-3.28-1.32-5.76-1.32Z"/>
    <path class="cls-2" d="M213.12,30.42c4.08,0,7.7,.12,10.86,.36,3.16,.24,6.12,.58,8.88,1.02,2.76,.44,5.5,1.06,8.22,1.86l-1.68,16.32c-2.88-.08-5.68-.14-8.4-.18-2.72-.04-5.48-.08-8.28-.12-2.8-.04-5.92-.06-9.36-.06-2.8,0-5.14,.32-7.02,.96-1.88,.64-3.36,1.84-4.44,3.6-1.08,1.76-1.86,4.22-2.34,7.38-.48,3.16-.72,7.18-.72,12.06,0,6.16,.38,10.96,1.14,14.4,.76,3.44,2.02,5.84,3.78,7.2,1.76,1.36,4.2,2.04,7.32,2.04,2.08,0,3.98-.14,5.7-.42,1.72-.28,3.28-.68,4.68-1.2,1.4-.52,2.62-.98,3.66-1.38l2.28,9.84c-1.04,1.6-2.7,3.38-4.98,5.34-2.28,1.96-5.1,3.64-8.46,5.04s-7.24,2.1-11.64,2.1c-6.24,0-11.38-1.46-15.42-4.38-4.04-2.92-7-7.54-8.88-13.86-1.88-6.32-2.82-14.6-2.82-24.84s1.22-19.22,3.66-25.5c2.44-6.28,6.44-10.78,12-13.5,5.56-2.72,12.98-4.08,22.26-4.08Zm31.2,36.84v47.64h-16.56l-3-12.72-2.04-3.96v-30.96h21.6Z"/>
    <path class="cls-2" d="M291.48,30.42c6.88,0,12.68,.68,17.4,2.04,4.72,1.36,8.56,3.66,11.52,6.9,2.96,3.24,5.08,7.62,6.36,13.14,1.28,5.52,1.92,12.52,1.92,21s-.64,15.38-1.92,20.94c-1.28,5.56-3.4,9.96-6.36,13.2-2.96,3.24-6.8,5.54-11.52,6.9-4.72,1.36-10.52,2.04-17.4,2.04s-12.58-.68-17.34-2.04c-4.76-1.36-8.62-3.66-11.58-6.9-2.96-3.24-5.08-7.64-6.36-13.2-1.28-5.56-1.92-12.54-1.92-20.94s.64-15.48,1.92-21c1.28-5.52,3.4-9.9,6.36-13.14,2.96-3.24,6.82-5.54,11.58-6.9,4.76-1.36,10.54-2.04,17.34-2.04Zm0,17.16c-3.52,0-6.26,.72-8.22,2.16-1.96,1.44-3.34,4.04-4.14,7.8-.8,3.76-1.2,9.08-1.2,15.96s.4,12.2,1.2,15.96c.8,3.76,2.18,6.36,4.14,7.8,1.96,1.44,4.7,2.16,8.22,2.16s6.26-.72,8.22-2.16c1.96-1.44,3.32-4.04,4.08-7.8,.76-3.76,1.14-9.08,1.14-15.96s-.38-12.2-1.14-15.96c-.76-3.76-2.12-6.36-4.08-7.8-1.96-1.44-4.7-2.16-8.22-2.16Z"/>
    <path class="cls-2" d="M413.88,32.1V106.98c0,5.28-2.6,7.92-7.8,7.92h-10.08c-2.4,0-4.18-.56-5.34-1.68-1.16-1.12-2.34-2.76-3.54-4.92l-20.28-35.28c-.96-2-1.92-4.16-2.88-6.48-.96-2.32-1.76-4.64-2.4-6.96h-1.08c.32,2.32,.58,4.7,.78,7.14,.2,2.44,.3,4.78,.3,7.02v41.16h-21V40.02c0-5.28,2.64-7.92,7.92-7.92h9.96c2.4,0,4.16,.56,5.28,1.68,1.12,1.12,2.32,2.76,3.6,4.92l19.44,33.96c1.12,1.92,2.2,4.04,3.24,6.36,1.04,2.32,2.04,4.76,3,7.32h1.08c-.24-2.48-.44-4.92-.6-7.32-.16-2.4-.24-4.8-.24-7.2l-.12-39.72h20.76Z"/>
    <path class="cls-2" d="M446.28,31.74h14.22c4.84,0,9.6,.1,14.28,.3,4.68,.2,8.98,.54,12.9,1.02l-1.08,16.08h-30.96c-1.76,0-3.12,.46-4.08,1.38-.96,.92-1.44,2.18-1.44,3.78v38.4c0,1.6,.48,2.86,1.44,3.78,.96,.92,2.32,1.38,4.08,1.38h30.96l1.08,16.08c-3.92,.4-8.22,.7-12.9,.9-4.68,.2-9.44,.32-14.28,.36-4.84,.04-9.58,.06-14.22,.06-5.52,0-10-1.64-13.44-4.92-3.44-3.28-5.16-7.56-5.16-12.84V49.5c0-5.36,1.72-9.66,5.16-12.9,3.44-3.24,7.92-4.86,13.44-4.86Zm-16.44,32.88h52.44v15.24h-52.44v-15.24Z"/>
  </g>
  <polygon class="cls-1" points="503.39 86.49 488.11 82.85 473.47 82.9 458.84 86.22 444.21 82.94 429.57 88.64 414.94 87.43 400.31 83.48 385.68 84.95 371.05 88.78 356.41 88.53 341.78 86.02 327.15 82.64 312.51 85.73 297.88 84.07 283.24 86.49 268.61 83.33 253.97 87.19 239.33 82.73 224.7 84.82 210.06 84.55 195.43 85.62 180.78 83.81 166.54 85.19 168.63 73.89 168.09 64.51 180.77 63.38 195.41 59.12 210.04 61.13 224.67 58.91 239.31 60.03 253.94 63.33 268.57 59.27 283.2 65.39 297.83 63.99 312.47 61.93 327.1 59.13 341.73 64.07 356.37 64.21 371 59.94 385.64 61.1 400.27 59.15 414.91 63.7 429.54 59.33 444.18 59.42 458.82 62.48 473.45 61.95 488.1 60.16 503.78 60.8 500.65 73.94 503.39 86.49"/>
</svg>